<svg id="Layer_1" data-name="Layer 1" xmlns="http://www.w3.org/2000/svg" viewBox="0 0 215.88 48"><defs><style>.cls-1{fill:none;stroke:#002f87;stroke-miterlimit:10;stroke-width:3px;}.cls-2{fill:#002f87;}</style></defs><title>Hood Lawfirm</title><circle class="cls-1" cx="189.38" cy="24" r="22"/><path class="cls-1" d="M173.85,29.93c-1-3.33,4.8-8.61,13.15-11.93,8.53-3.39,16.52-3.45,17.84-.14S200.3,26.61,191.76,30a32.9,32.9,0,0,1-12,2.58l3.87-2.24"/><circle class="cls-1" cx="190.21" cy="24" r="5.88"/><path class="cls-2" d="M13.05,27.72a13.52,13.52,0,0,1-4.15-.54,7.26,7.26,0,0,1-2.64-1.43,4.86,4.86,0,0,1-1.39-2,6,6,0,0,1-.4-2.14,6.41,6.41,0,0,1,.38-2.17,6.21,6.21,0,0,1,1.19-2c.37.17.73.33,1.07.45s.68.28,1,.44A4.77,4.77,0,0,0,7.26,20,5.42,5.42,0,0,0,7,21.65,3.67,3.67,0,0,0,7.28,23a3.35,3.35,0,0,0,1,1.34,5.28,5.28,0,0,0,1.89,1,9.22,9.22,0,0,0,3.06.42,9.74,9.74,0,0,0,2.31-.26,6.27,6.27,0,0,0,2-.82,4.35,4.35,0,0,0,1.39-1.41,3.93,3.93,0,0,0,.52-2.07V5.17h2.41v16a5.78,5.78,0,0,1-.63,2.7,6.2,6.2,0,0,1-1.79,2.07,8.68,8.68,0,0,1-2.78,1.35A12.88,12.88,0,0,1,13.05,27.72Z"/><path class="cls-2" d="M25.7,22.37V20.45h9V17.37a3.92,3.92,0,0,0-.31-1.65,2.32,2.32,0,0,0-.91-1A3.87,3.87,0,0,0,32,14.24a14,14,0,0,0-1.93-.12H27.52V12.27h3.3a14.06,14.06,0,0,1,2.35.19,5.66,5.66,0,0,1,2,.73,4.07,4.07,0,0,1,1.4,1.48,5,5,0,0,1,.52,2.45v5.25Z"/><path class="cls-2" d="M41.74,5.17h2.47V20.45h2.41c.47,0,.71.15.71.43v.92c0,.38-.24.57-.71.57H41.74Z"/><path class="cls-2" d="M46.16,22.37c-.48,0-.71-.14-.71-.42V21c0-.38.23-.57.71-.57h5a5.19,5.19,0,0,1-1.21-.92,4.31,4.31,0,0,1-.76-1,3.92,3.92,0,0,1-.4-1,4.07,4.07,0,0,1-.12-1A3.79,3.79,0,0,1,49,14.89a3.9,3.9,0,0,1,1.14-1.42,5.71,5.71,0,0,1,2-1A10.3,10.3,0,0,1,55,12.1c.42,0,.86,0,1.35.05l1.55.12c0,.36-.08.69-.12,1s-.09.59-.15.93c-.42-.05-.79-.09-1.11-.11s-.7,0-1.12,0a5.56,5.56,0,0,0-3.17.77,2.41,2.41,0,0,0-1.11,2.07,2.61,2.61,0,0,0,.47,1.55,3.77,3.77,0,0,0,1.3,1.12,7.48,7.48,0,0,0,1.87.68,9.94,9.94,0,0,0,2.22.24h2.22v1.92Z"/><path class="cls-2" d="M90,20.45c.48,0,.71.15.71.43v.92c0,.38-.23.57-.71.57H89.2a7.41,7.41,0,0,1-1.71-.19,2.13,2.13,0,0,1-1.28-.8,6.49,6.49,0,0,1-1,3,6.68,6.68,0,0,1-2.07,2,8.86,8.86,0,0,1-2.71,1.09,13.79,13.79,0,0,1-3,.33,13.57,13.57,0,0,1-4.15-.54,7.21,7.21,0,0,1-2.63-1.43,4.86,4.86,0,0,1-1.39-2,6,6,0,0,1-.4-2.14,5.91,5.91,0,0,1,.43-2.18,6.82,6.82,0,0,1,1.2-2l2,.91A5.55,5.55,0,0,0,71.61,20a5.46,5.46,0,0,0-.27,1.64,3.73,3.73,0,0,0,.29,1.43,3.36,3.36,0,0,0,1,1.35,5.62,5.62,0,0,0,1.91,1,9.73,9.73,0,0,0,3,.38,9.23,9.23,0,0,0,2.71-.35,5.85,5.85,0,0,0,2-1,4.08,4.08,0,0,0,1.16-1.41,3.92,3.92,0,0,0,.38-1.67,6.84,6.84,0,0,0-.45-2.32A8.65,8.65,0,0,0,82,16.76c.46-.19.85-.37,1.19-.53s.72-.33,1.13-.5a15,15,0,0,1,.83,1.56c.23.49.41.95.56,1.36a3.14,3.14,0,0,0,.43.9,1.5,1.5,0,0,0,.63.54,3.31,3.31,0,0,0,1,.28,9.62,9.62,0,0,0,1.43.08ZM76.71,11.07a1,1,0,0,1,.41-.78,1.74,1.74,0,0,1,2,0,.95.95,0,0,1,0,1.56,1.74,1.74,0,0,1-2,0A1,1,0,0,1,76.71,11.07Z"/><path class="cls-2" d="M89.54,22.37c-.47,0-.71-.14-.71-.42V21c0-.38.24-.57.71-.57h4.63v-7.2h2.47v9.12Zm4.23,3.87a.94.94,0,0,1,.42-.78,1.68,1.68,0,0,1,2,0,.94.94,0,0,1,.42.78,1,1,0,0,1-.42.78,1.72,1.72,0,0,1-2,0A1,1,0,0,1,93.77,26.24Z"/><path class="cls-2" d="M108.55,22.37V20.45h9V17.37a3.77,3.77,0,0,0-.31-1.65,2.26,2.26,0,0,0-.91-1,3.81,3.81,0,0,0-1.45-.48,14,14,0,0,0-1.93-.12h-2.53V12.27h3.3a13.89,13.89,0,0,1,2.35.19,5.66,5.66,0,0,1,2,.73,4,4,0,0,1,1.4,1.48,5,5,0,0,1,.53,2.45v5.25Z"/><path class="cls-2" d="M139.38,20.45c.47,0,.71.15.71.43v.92c0,.38-.24.57-.71.57H136a5.43,5.43,0,0,1-.61,2.55,4.88,4.88,0,0,1-1.62,1.73,7.36,7.36,0,0,1-2.46,1,15,15,0,0,1-3.11.3l-1.33,0a11.18,11.18,0,0,1-1.39-.12c0-.33.08-.64.11-.93s.07-.59.11-.89l1.39.08c.45,0,.88,0,1.29,0a14,14,0,0,0,2-.14,4.8,4.8,0,0,0,1.65-.56,3.09,3.09,0,0,0,1.15-1.12,3.92,3.92,0,0,0,.46-1.88h-2.87a10.33,10.33,0,0,1-3.1-.4,6.27,6.27,0,0,1-2.07-1.06,3.73,3.73,0,0,1-1.14-1.48,4.11,4.11,0,0,1-.36-1.66,4.88,4.88,0,0,1,.47-2.1,5.13,5.13,0,0,1,1.29-1.74,6.25,6.25,0,0,1,2-1.18,7.09,7.09,0,0,1,2.52-.43,7.89,7.89,0,0,1,2.37.33,5.48,5.48,0,0,1,1.78.94,4.09,4.09,0,0,1,1.11,1.46,4.44,4.44,0,0,1,.38,1.87v3.53Zm-5.8,0V17.68a3.5,3.5,0,0,0-.93-2.59,3.41,3.41,0,0,0-2.5-.92,4.73,4.73,0,0,0-1.39.21,3.63,3.63,0,0,0-1.18.64,3.28,3.28,0,0,0-.82,1,2.69,2.69,0,0,0-.31,1.3,2.88,2.88,0,0,0,.34,1.45,2.67,2.67,0,0,0,.92,1,4.39,4.39,0,0,0,1.33.55,7.3,7.3,0,0,0,1.58.16Z"/><path class="cls-2" d="M139,22.37c-.48,0-.71-.14-.71-.42V21c0-.38.23-.57.71-.57h3.79a8.39,8.39,0,0,1,.54-3.05A7.55,7.55,0,0,1,144.79,15a7.81,7.81,0,0,1,2.35-1.69,9.21,9.21,0,0,1,3-.81V11h2v1.49a11.68,11.68,0,0,1,3.4.75A7.1,7.1,0,0,1,158,14.69a6,6,0,0,1,1.39,2.12,7.38,7.38,0,0,1,.45,2.61v2.95Zm11.23-8.16a5.94,5.94,0,0,0-3.77,1.7,5.48,5.48,0,0,0-1.42,4v.55h5.19Zm2,6.24h5.15V19.23a5,5,0,0,0-.39-2.05,4.17,4.17,0,0,0-1.09-1.49,5.33,5.33,0,0,0-1.63-1,8.47,8.47,0,0,0-2-.52Z"/><path class="cls-2" d="M10.94,39.45c.19,0,.29.06.29.18V40c0,.16-.1.24-.29.24H7.72a4.31,4.31,0,0,1-1.28-.17,2.42,2.42,0,0,1-.85-.44A1.71,1.71,0,0,1,5.11,39a2,2,0,0,1-.14-.7,1.85,1.85,0,0,1,.2-.87,2.28,2.28,0,0,1,.54-.73,2.49,2.49,0,0,1,.82-.49,3,3,0,0,1,1-.18,3.24,3.24,0,0,1,1,.14,2,2,0,0,1,.73.39,1.76,1.76,0,0,1,.47.61,1.85,1.85,0,0,1,.17.78v1.47Zm-2,0V38.3a1.5,1.5,0,0,0-.36-1.08,1.4,1.4,0,0,0-1.06-.39,1.67,1.67,0,0,0-.55.09,1.57,1.57,0,0,0-.49.27,1.23,1.23,0,0,0-.34.41,1.08,1.08,0,0,0-.13.54,1.28,1.28,0,0,0,.14.61,1,1,0,0,0,.38.4,1.69,1.69,0,0,0,.55.23,2.7,2.7,0,0,0,.65.07ZM6.1,34.54a.42.42,0,0,1,.17-.33.72.72,0,0,1,.42-.13.69.69,0,0,1,.41.13.41.41,0,0,1,0,.66.63.63,0,0,1-.41.13.66.66,0,0,1-.42-.13A.42.42,0,0,1,6.1,34.54Zm1.69,0A.42.42,0,0,1,8,34.21a.75.75,0,0,1,.42-.13.69.69,0,0,1,.41.13.41.41,0,0,1,0,.66.63.63,0,0,1-.41.13A.68.68,0,0,1,8,34.87.42.42,0,0,1,7.79,34.54Z"/><path class="cls-2" d="M10.75,40.25q-.3,0-.3-.18v-.38q0-.24.3-.24h1.09a.74.74,0,0,0,.62-.21.9.9,0,0,0,.16-.55V36.45h1v1.82a1.39,1.39,0,0,0,.08.46.77.77,0,0,0,.24.38,1.08,1.08,0,0,0,.45.25,2.22,2.22,0,0,0,.69.09h.28c.19,0,.29.06.29.18V40c0,.16-.1.24-.29.24h-.32a2.42,2.42,0,0,1-1-.18,1,1,0,0,1-.56-.59,1.91,1.91,0,0,1-.31.4,1.33,1.33,0,0,1-.37.23,1.94,1.94,0,0,1-.43.11,3.64,3.64,0,0,1-.48,0Zm1,1.61a.37.37,0,0,1,.17-.32.67.67,0,0,1,.82,0,.37.37,0,0,1,0,.64.67.67,0,0,1-.82,0A.37.37,0,0,1,11.73,41.86Zm1.69,0a.4.4,0,0,1,.17-.32A.66.66,0,0,1,14,41.4a.66.66,0,0,1,.42.14.39.39,0,0,1,0,.64.61.61,0,0,1-.42.14.6.6,0,0,1-.41-.14A.4.4,0,0,1,13.42,41.86Z"/><path class="cls-2" d="M15.18,40.25q-.3,0-.3-.18v-.38q0-.24.3-.24h1.9v-3h1v3.8ZM17,34.54a.42.42,0,0,1,.17-.33.75.75,0,0,1,.42-.13.69.69,0,0,1,.41.13.41.41,0,0,1,0,.66.63.63,0,0,1-.41.13.68.68,0,0,1-.42-.13A.42.42,0,0,1,17,34.54Z"/><path class="cls-2" d="M26.23,39.45q.3,0,.3.18V40q0,.24-.3.24h-1.4a2.19,2.19,0,0,1-.25,1.06,2,2,0,0,1-.67.72,2.78,2.78,0,0,1-1,.4,5.75,5.75,0,0,1-1.29.13h-.54a5.48,5.48,0,0,1-.57,0c0-.14,0-.27,0-.39s0-.24,0-.37l.58,0h.53a5.36,5.36,0,0,0,.82-.06,2,2,0,0,0,.68-.23,1.25,1.25,0,0,0,.47-.47,1.5,1.5,0,0,0,.19-.78H22.67a4.31,4.31,0,0,1-1.28-.17,2.52,2.52,0,0,1-.85-.44,1.67,1.67,0,0,1-.47-.61,1.8,1.8,0,0,1-.15-.7,2.13,2.13,0,0,1,.19-.87,2.28,2.28,0,0,1,.54-.73,2.49,2.49,0,0,1,.82-.49,2.91,2.91,0,0,1,1-.18,3.31,3.31,0,0,1,1,.14,2.13,2.13,0,0,1,.73.39,1.73,1.73,0,0,1,.46.61,2,2,0,0,1,.15.78v1.47Zm-2.39,0V38.3a1.46,1.46,0,0,0-.38-1.08,1.37,1.37,0,0,0-1-.39,1.79,1.79,0,0,0-.57.09,1.37,1.37,0,0,0-.49.27,1.23,1.23,0,0,0-.34.41,1.08,1.08,0,0,0-.13.54,1.28,1.28,0,0,0,.14.61,1,1,0,0,0,.38.4,1.69,1.69,0,0,0,.55.23,2.7,2.7,0,0,0,.65.07Z"/><path class="cls-2" d="M26.06,40.25q-.3,0-.3-.18v-.38q0-.24.3-.24H28v-3h1v3.8Zm1.8-5.71a.4.4,0,0,1,.18-.33.71.71,0,0,1,.82,0,.41.41,0,0,1,0,.66.71.71,0,0,1-.82,0A.4.4,0,0,1,27.86,34.54Z"/><path class="cls-2" d="M31,33.08h1v6.37h1c.2,0,.29.06.29.18V40c0,.16-.09.24-.29.24H31Z"/><path class="cls-2" d="M32.85,40.25q-.3,0-.3-.18v-.38q0-.24.3-.24h2.08a1.65,1.65,0,0,1-.46-.54,1.44,1.44,0,0,1-.19-.75,1.72,1.72,0,0,1,.19-.78,2.36,2.36,0,0,1,.56-.67,2.94,2.94,0,0,1,.86-.47A3.37,3.37,0,0,1,37,36.06a3,3,0,0,1,.93.14,2,2,0,0,1,.7.38,1.79,1.79,0,0,1,.44.58,1.89,1.89,0,0,1,.15.77v1.52h1.13c.2,0,.29.06.29.18V40c0,.16-.09.24-.29.24Zm5.36-.8V37.87a.94.94,0,0,0-.08-.36.88.88,0,0,0-.24-.34,1.22,1.22,0,0,0-.42-.24,1.65,1.65,0,0,0-.62-.1,1.9,1.9,0,0,0-.58.09,1.62,1.62,0,0,0-.5.27,1.25,1.25,0,0,0-.35.41,1.19,1.19,0,0,0-.12.54,1.1,1.1,0,0,0,.22.73,1.69,1.69,0,0,0,.51.39,2.41,2.41,0,0,0,.75.19Zm-2.7-4.91a.42.42,0,0,1,.17-.33.75.75,0,0,1,.42-.13.69.69,0,0,1,.41.13.41.41,0,0,1,0,.66.63.63,0,0,1-.41.13.68.68,0,0,1-.42-.13A.42.42,0,0,1,35.51,34.54Zm1.7,0a.39.39,0,0,1,.17-.33.71.71,0,0,1,.82,0,.39.39,0,0,1,0,.66.71.71,0,0,1-.82,0A.39.39,0,0,1,37.21,34.54Z"/><path class="cls-2" d="M40.44,40.25c-.2,0-.29-.06-.29-.18v-.38c0-.16.09-.24.29-.24h1.64V33.08h1v7.17Z"/><path class="cls-2" d="M45.12,33.08h1v7.17h-1Z"/><path class="cls-2" d="M52.26,40.25a3.1,3.1,0,0,1-.88-.11,1.47,1.47,0,0,1-.56-.29,1,1,0,0,1-.3-.43,1.44,1.44,0,0,1-.09-.51V37.33h1V38.7q0,.46.21.6a1.28,1.28,0,0,0,.7.15h6.52v-3h1v3.8ZM54,34.54a.42.42,0,0,1,.17-.33.69.69,0,0,1,.41-.13.75.75,0,0,1,.42.13.41.41,0,0,1,0,.66.68.68,0,0,1-.42.13.63.63,0,0,1-.41-.13A.42.42,0,0,1,54,34.54Zm1.69,0a.42.42,0,0,1,.17-.33.72.72,0,0,1,.42-.13.71.71,0,0,1,.41.13.41.41,0,0,1,0,.66.65.65,0,0,1-.41.13.66.66,0,0,1-.42-.13A.42.42,0,0,1,55.71,34.54Z"/><path class="cls-2" d="M61.92,33.08h1v7.17h-1Z"/><path class="cls-2" d="M67.11,40.29a2.32,2.32,0,0,1-.14.8,2,2,0,0,1-.44.66,2.18,2.18,0,0,1-.72.44,2.72,2.72,0,0,1-1,.16l-.54,0-.38,0a2.7,2.7,0,0,1,.06-.41A2.5,2.5,0,0,0,64,41.5l.3,0,.26,0h.24a1.18,1.18,0,0,0,1-.34,1.65,1.65,0,0,0,.27-1V36.45h1Z"/><path class="cls-2" d="M69.15,33.08h1v6.37h1c.2,0,.29.06.29.18V40c0,.16-.09.24-.29.24h-2Z"/><path class="cls-2" d="M71,40.25c-.2,0-.29-.06-.29-.18v-.38c0-.16.09-.24.29-.24h2.1a.74.74,0,0,0,.61-.2,1,1,0,0,0,.15-.56V37.45h1v.82a1.33,1.33,0,0,0,.07.45,1,1,0,0,0,.24.38,1.3,1.3,0,0,0,.45.26,2.33,2.33,0,0,0,.7.09h.24a.73.73,0,0,0,.61-.2,1,1,0,0,0,.15-.56V37h1v1.24a1.45,1.45,0,0,0,.07.47.79.79,0,0,0,.24.37,1.11,1.11,0,0,0,.44.25,2.33,2.33,0,0,0,.7.09h.31c.34,0,.55-.07.65-.21a1,1,0,0,0,.14-.55V36.45h1v1.82a1.39,1.39,0,0,0,.07.46.77.77,0,0,0,.24.38,1.11,1.11,0,0,0,.44.25,2.33,2.33,0,0,0,.7.09h.29c.2,0,.29.06.29.18V40c0,.16-.09.24-.29.24h-.33a2.58,2.58,0,0,1-1-.16,1,1,0,0,1-.58-.61,1.43,1.43,0,0,1-.31.42,1.25,1.25,0,0,1-.38.23,1.51,1.51,0,0,1-.42.1l-.47,0h-.43a2.39,2.39,0,0,1-.95-.16,1.14,1.14,0,0,1-.59-.61,1.44,1.44,0,0,1-.69.62,2.5,2.5,0,0,1-.88.15h-.36a2.47,2.47,0,0,1-1-.16,1.14,1.14,0,0,1-.59-.61,1.52,1.52,0,0,1-.31.41,1.29,1.29,0,0,1-.39.23,2.12,2.12,0,0,1-.45.11l-.51,0Zm5.46-5.71a.42.42,0,0,1,.17-.33.71.71,0,0,1,.41-.13.72.72,0,0,1,.42.13.41.41,0,0,1,0,.66A.66.66,0,0,1,77,35a.65.65,0,0,1-.41-.13A.42.42,0,0,1,76.43,34.54Zm.85-1a.39.39,0,0,1,.17-.32.68.68,0,0,1,.42-.14.64.64,0,0,1,.41.14.36.36,0,0,1,.17.32.4.4,0,0,1-.17.33.63.63,0,0,1-.41.13.68.68,0,0,1-.42-.13A.43.43,0,0,1,77.28,33.49Zm.84,1a.42.42,0,0,1,.17-.33.75.75,0,0,1,.42-.13.69.69,0,0,1,.41.13.41.41,0,0,1,0,.66.63.63,0,0,1-.41.13.68.68,0,0,1-.42-.13A.42.42,0,0,1,78.12,34.54Z"/><path class="cls-2" d="M83.44,40.25c-.19,0-.29-.06-.29-.18v-.38c0-.16.1-.24.29-.24h1.1a.72.72,0,0,0,.61-.21.84.84,0,0,0,.16-.55V36.45h1v1.82a1.39,1.39,0,0,0,.07.46,1,1,0,0,0,.24.38,1.22,1.22,0,0,0,.45.25,2.31,2.31,0,0,0,.69.09h.28c.2,0,.29.06.29.18V40c0,.16-.09.24-.29.24h-.32a2.45,2.45,0,0,1-1-.18,1,1,0,0,1-.56-.59,1.63,1.63,0,0,1-.31.4,1.16,1.16,0,0,1-.36.23,2.09,2.09,0,0,1-.43.11,3.91,3.91,0,0,1-.49,0Zm.94-5.71a.4.4,0,0,1,.18-.33.71.71,0,0,1,.82,0,.41.41,0,0,1,0,.66.71.71,0,0,1-.82,0A.4.4,0,0,1,84.38,34.54Zm1.7,0a.39.39,0,0,1,.17-.33.69.69,0,0,1,.41-.13.75.75,0,0,1,.42.13.41.41,0,0,1,0,.66.68.68,0,0,1-.42.13.63.63,0,0,1-.41-.13A.39.39,0,0,1,86.08,34.54Z"/><path class="cls-2" d="M87.87,40.25c-.19,0-.29-.06-.29-.18v-.38c0-.16.1-.24.29-.24H90a.74.74,0,0,0,.61-.2,1,1,0,0,0,.15-.56V37.45h1v.82a1.45,1.45,0,0,0,.07.47.79.79,0,0,0,.24.37,1.08,1.08,0,0,0,.45.25,2.2,2.2,0,0,0,.68.09h.33c.32,0,.53-.07.62-.2a1,1,0,0,0,.14-.56V37h1v1.24a1.45,1.45,0,0,0,.07.47.85.85,0,0,0,.23.37,1.08,1.08,0,0,0,.45.25,2.26,2.26,0,0,0,.69.09h1v-3h1v3.8H96.68a2.73,2.73,0,0,1-.94-.15,1,1,0,0,1-.59-.62,1.24,1.24,0,0,1-.65.63,1.94,1.94,0,0,1-.43.11,3.91,3.91,0,0,1-.49,0h-.43a2.41,2.41,0,0,1-1-.16,1.38,1.38,0,0,1-.61-.61,1.44,1.44,0,0,1-.66.59,2.5,2.5,0,0,1-1,.18Z"/><path class="cls-2" d="M107.25,33.08v7.17h-7v-.8H103V35.07h1v4.38h2.23V33.08Z"/><path class="cls-2" d="M109.29,33.08h1v7.17h-1Z"/><path class="cls-2" d="M114.88,40.25a4.31,4.31,0,0,1-1.28-.17,2.42,2.42,0,0,1-.85-.44,1.57,1.57,0,0,1-.47-.61,1.8,1.8,0,0,1-.15-.7,2,2,0,0,1,.19-.87,2.4,2.4,0,0,1,.53-.73,2.59,2.59,0,0,1,.82-.49,2.87,2.87,0,0,1,1-.18,3.24,3.24,0,0,1,1,.14,2.18,2.18,0,0,1,.74.39,1.62,1.62,0,0,1,.46.61A1.77,1.77,0,0,1,117,38V40.3a2.22,2.22,0,0,1-.23,1,1.87,1.87,0,0,1-.67.7,3.07,3.07,0,0,1-1,.39,5.75,5.75,0,0,1-1.29.13h-.53c-.19,0-.39,0-.6,0l.1-.76.57,0h.53a5.46,5.46,0,0,0,.82-.06,2.1,2.1,0,0,0,.68-.23,1.27,1.27,0,0,0,.48-.47,1.6,1.6,0,0,0,.19-.78Zm1.17-.81V38.29a1.5,1.5,0,0,0-.38-1.08,1.39,1.39,0,0,0-1-.38,1.79,1.79,0,0,0-.57.09,1.64,1.64,0,0,0-.49.26,1.37,1.37,0,0,0-.34.42,1.08,1.08,0,0,0-.13.54,1.27,1.27,0,0,0,.14.6,1,1,0,0,0,.38.4,1.69,1.69,0,0,0,.55.23,2.84,2.84,0,0,0,.66.07Z"/><path class="cls-2" d="M126.18,40.25H124a4.43,4.43,0,0,1-1.29-.17,2.52,2.52,0,0,1-.85-.44,1.67,1.67,0,0,1-.47-.61,1.8,1.8,0,0,1-.15-.7,2,2,0,0,1,.19-.87,2.28,2.28,0,0,1,.54-.73,2.49,2.49,0,0,1,.82-.49,3,3,0,0,1,1-.18,3.24,3.24,0,0,1,1,.14,2.09,2.09,0,0,1,.74.39,1.73,1.73,0,0,1,.46.61,1.77,1.77,0,0,1,.17.77Zm-1-.8V38.3a1.46,1.46,0,0,0-.37-1.08,1.37,1.37,0,0,0-1.05-.39,1.71,1.71,0,0,0-.55.09,1.42,1.42,0,0,0-.48.27,1.36,1.36,0,0,0-.34.41,1.09,1.09,0,0,0-.14.54,1.28,1.28,0,0,0,.14.61,1.07,1.07,0,0,0,.39.4,1.63,1.63,0,0,0,.54.23,2.76,2.76,0,0,0,.65.07Zm-2.85-4.91a.42.42,0,0,1,.17-.33.72.72,0,0,1,.42-.13.71.71,0,0,1,.41.13.41.41,0,0,1,0,.66.65.65,0,0,1-.41.13.66.66,0,0,1-.42-.13A.42.42,0,0,1,122.31,34.54Zm1.69,0a.42.42,0,0,1,.17-.33.75.75,0,0,1,.42-.13.69.69,0,0,1,.41.13.41.41,0,0,1,0,.66.63.63,0,0,1-.41.13.68.68,0,0,1-.42-.13A.42.42,0,0,1,124,34.54Z"/><path class="cls-2" d="M128.08,33.08h1v6.37h1c.19,0,.29.06.29.18V40c0,.16-.1.24-.29.24h-2Z"/><path class="cls-2" d="M129.9,40.25q-.3,0-.3-.18v-.39q0-.24.3-.24h.33c.73,0,1.09-.4,1.09-1.2a1.9,1.9,0,0,1,.19-.86,1.87,1.87,0,0,1,.53-.68,2.31,2.31,0,0,1,.8-.45,3,3,0,0,1,1-.16,3.13,3.13,0,0,1,1.07.16,2.32,2.32,0,0,1,.75.46,1.74,1.74,0,0,1,.44.7,2.48,2.48,0,0,1,.15.89,2,2,0,0,1-.13.73,1.67,1.67,0,0,1-.41.63,2,2,0,0,1-.75.45,3.3,3.3,0,0,1-1.12.17l-.54,0a2.9,2.9,0,0,1-.57-.12,2.31,2.31,0,0,1-.55-.26,2,2,0,0,1-.5-.46,1.39,1.39,0,0,1-.6.64,1.93,1.93,0,0,1-.92.2Zm3.93-.75a2,2,0,0,0,.67-.1,1.53,1.53,0,0,0,.47-.27,1.14,1.14,0,0,0,.27-.39,1.37,1.37,0,0,0,.09-.49,1.25,1.25,0,0,0-.13-.59,1.63,1.63,0,0,0-.33-.45,1.69,1.69,0,0,0-.49-.28,1.52,1.52,0,0,0-.55-.1,1.66,1.66,0,0,0-.59.1,1.69,1.69,0,0,0-.49.28,1.45,1.45,0,0,0-.33.45,1.45,1.45,0,0,0,0,1.08,1.14,1.14,0,0,0,.27.39,1.53,1.53,0,0,0,.47.27A2.11,2.11,0,0,0,133.83,39.5Z"/><path class="cls-2" d="M138,33.08h1v6.37h1c.2,0,.29.06.29.18V40c0,.16-.09.24-.29.24h-2Z"/><path class="cls-2" d="M139.86,40.25c-.19,0-.29-.06-.29-.18v-.38c0-.16.1-.24.29-.24h4.21a1.62,1.62,0,0,1-.3-.52,4.37,4.37,0,0,1-.23-.91,1.36,1.36,0,0,0-.45-.9,1.59,1.59,0,0,0-.94-.26,4.11,4.11,0,0,0-.62.06,6.49,6.49,0,0,0-.7.18l-.26-.78.38-.09.47-.09.51-.07.51,0a2.36,2.36,0,0,1,1,.17,1.92,1.92,0,0,1,.65.42,1.72,1.72,0,0,1,.36.57,2.31,2.31,0,0,1,.14.62,3.19,3.19,0,0,0,.12.63,1.66,1.66,0,0,0,.24.52,1,1,0,0,0,.4.35,1.28,1.28,0,0,0,.63.13h.15c.19,0,.29.06.29.18V40c0,.16-.1.24-.29.24h-.24a3,3,0,0,1-.94-.14,1.76,1.76,0,0,1-.7-.45,1.49,1.49,0,0,1-.53.48,1.34,1.34,0,0,1-.51.11Z"/><path class="cls-2" d="M145.93,40.25c-.19,0-.29-.06-.29-.18v-.39c0-.16.1-.24.29-.24h.33a1.75,1.75,0,0,0,.4,0,.8.8,0,0,0,.34-.18,1,1,0,0,0,.25-.37,1.65,1.65,0,0,0,.09-.6,1.94,1.94,0,0,1,.2-.86,2,2,0,0,1,.52-.68,2.43,2.43,0,0,1,.79-.45,3,3,0,0,1,1-.16,2.53,2.53,0,0,1,1.8.6,2.22,2.22,0,0,1,.63,1.69,1.33,1.33,0,0,0,.05.3.84.84,0,0,0,.19.36,1.33,1.33,0,0,0,.43.28,2.12,2.12,0,0,0,.79.12h.3c.2,0,.29.06.29.18V40c0,.16-.09.24-.29.24h-.34a3.27,3.27,0,0,1-.54,0,2.85,2.85,0,0,1-.5-.14,1.49,1.49,0,0,1-.41-.28,1.13,1.13,0,0,1-.27-.45,2.76,2.76,0,0,1-.52.51,2.13,2.13,0,0,1-.53.29,2.17,2.17,0,0,1-.56.13,5.68,5.68,0,0,1-.59,0,2.93,2.93,0,0,1-1.22-.22,2.13,2.13,0,0,1-.86-.67,1.24,1.24,0,0,1-.56.63,1.68,1.68,0,0,1-.8.21Zm3.92-.75a2,2,0,0,0,.68-.1,1.42,1.42,0,0,0,.47-.27,1,1,0,0,0,.28-.39,1.39,1.39,0,0,0,0-1.08,1.67,1.67,0,0,0-.34-.45,1.64,1.64,0,0,0-.48-.28,1.56,1.56,0,0,0-.57-.1,1.61,1.61,0,0,0-.58.1,1.57,1.57,0,0,0-.49.28,1.45,1.45,0,0,0-.33.45,1.25,1.25,0,0,0-.13.59,1.37,1.37,0,0,0,.09.49,1.17,1.17,0,0,0,.28.39,1.58,1.58,0,0,0,.48.27A2,2,0,0,0,149.85,39.5Z"/><path class="cls-2" d="M153.87,40.25c-.19,0-.29-.06-.29-.18v-.38c0-.16.1-.24.29-.24H155a.75.75,0,0,0,.61-.2.89.89,0,0,0,.16-.56V33.08h1v5.19a1.64,1.64,0,0,0,.07.46,1,1,0,0,0,.24.38,1.19,1.19,0,0,0,.46.25,2.2,2.2,0,0,0,.68.09h.28q.3,0,.3.18V40q0,.24-.3.24h-.32a2.45,2.45,0,0,1-1-.18,1,1,0,0,1-.56-.59,1.42,1.42,0,0,1-.31.4,1.16,1.16,0,0,1-.36.23,2.09,2.09,0,0,1-.43.11,3.79,3.79,0,0,1-.49,0Z"/><path class="cls-2" d="M158.3,40.25c-.19,0-.29-.06-.29-.18v-.38c0-.16.1-.24.29-.24h1.64V33.08h1v7.17Z"/></svg>