<svg id="Layer_1" data-name="Layer 1" xmlns="http://www.w3.org/2000/svg" viewBox="0 0 215.88 48"><defs><style>.cls-1{fill:none;stroke:#002f87;stroke-miterlimit:10;stroke-width:3px;}.cls-2{fill:#002f87;}</style></defs><title>Hood Lawfirm</title><circle class="cls-1" cx="27.22" cy="24" r="22"/><path class="cls-1" d="M11.68,29.93c-1-3.33,4.8-8.61,13.16-11.93,8.53-3.39,16.52-3.45,17.84-.14S38.14,26.61,29.6,30a32.9,32.9,0,0,1-12,2.58l3.87-2.24"/><circle class="cls-1" cx="28.05" cy="24" r="5.88"/><path class="cls-2" d="M57.62,7.5h2v6.3h9.11V7.5h2V22.37h-2V15.44H59.64v6.93h-2Z"/><path class="cls-2" d="M74,17.46a4.69,4.69,0,0,1,.46-2.1,5,5,0,0,1,1.25-1.63,5.85,5.85,0,0,1,1.9-1.06,7.83,7.83,0,0,1,4.82,0,5.79,5.79,0,0,1,1.91,1.06,5.11,5.11,0,0,1,1.25,1.63,5,5,0,0,1,0,4.2,5.11,5.11,0,0,1-1.25,1.63,5.79,5.79,0,0,1-1.91,1.06,7.83,7.83,0,0,1-4.82,0,5.85,5.85,0,0,1-1.9-1.06,5,5,0,0,1-1.25-1.63A4.69,4.69,0,0,1,74,17.46Zm2,0a3.77,3.77,0,0,0,.28,1.44,3.43,3.43,0,0,0,.81,1.15,3.83,3.83,0,0,0,1.26.78,5,5,0,0,0,3.3,0A3.88,3.88,0,0,0,83,20.05a3.43,3.43,0,0,0,.81-1.15,4,4,0,0,0,0-2.88A3.34,3.34,0,0,0,83,14.87a3.88,3.88,0,0,0-1.27-.78,4.84,4.84,0,0,0-3.3,0,3.83,3.83,0,0,0-1.26.78A3.34,3.34,0,0,0,76.33,16,3.77,3.77,0,0,0,76.05,17.46Z"/><path class="cls-2" d="M88.34,17.46a4.83,4.83,0,0,1,.46-2.1,5.11,5.11,0,0,1,1.25-1.63A5.79,5.79,0,0,1,92,12.67a7.83,7.83,0,0,1,4.82,0,5.85,5.85,0,0,1,1.9,1.06,5,5,0,0,1,1.25,1.63,5,5,0,0,1,0,4.2,5,5,0,0,1-1.25,1.63,5.85,5.85,0,0,1-1.9,1.06,7.83,7.83,0,0,1-4.82,0,5.79,5.79,0,0,1-1.91-1.06,5.11,5.11,0,0,1-1.25-1.63A4.83,4.83,0,0,1,88.34,17.46Zm2,0a3.77,3.77,0,0,0,.27,1.44,3.43,3.43,0,0,0,.81,1.15,3.88,3.88,0,0,0,1.27.78,5,5,0,0,0,3.3,0,3.83,3.83,0,0,0,1.26-.78,3.43,3.43,0,0,0,.81-1.15,3.84,3.84,0,0,0,0-2.88,3.34,3.34,0,0,0-.81-1.15A3.83,3.83,0,0,0,96,14.09a4.84,4.84,0,0,0-3.3,0,3.88,3.88,0,0,0-1.27.78A3.34,3.34,0,0,0,90.64,16,3.77,3.77,0,0,0,90.37,17.46Z"/><path class="cls-2" d="M112.68,20.63h-.05A4.11,4.11,0,0,1,111,22.05a5.93,5.93,0,0,1-2.67.58,6.26,6.26,0,0,1-2.23-.39,5.62,5.62,0,0,1-1.78-1.08,5.23,5.23,0,0,1-1.19-1.64,5.15,5.15,0,0,1,0-4.12,5,5,0,0,1,1.2-1.64,5.63,5.63,0,0,1,1.87-1.08,7.18,7.18,0,0,1,2.42-.39,5.76,5.76,0,0,1,2.26.44A5.58,5.58,0,0,1,112.63,14h.05V6.5h1.88V22.37h-1.88Zm0-3.17A3.59,3.59,0,0,0,112.4,16a3.09,3.09,0,0,0-.81-1.15,3.83,3.83,0,0,0-1.26-.78,4.84,4.84,0,0,0-3.3,0,4,4,0,0,0-1.27.78A3.18,3.18,0,0,0,105,16a3.84,3.84,0,0,0,0,2.88,3.27,3.27,0,0,0,.8,1.15,4,4,0,0,0,1.27.78,5,5,0,0,0,3.3,0,3.83,3.83,0,0,0,1.26-.78,3.17,3.17,0,0,0,.81-1.15A3.59,3.59,0,0,0,112.68,17.46Z"/><path class="cls-2" d="M124.63,7.5h5.2a12,12,0,0,1,2.07.19,6.43,6.43,0,0,1,1.81.62A3.72,3.72,0,0,1,135,9.44a2.87,2.87,0,0,1,.5,1.72,3,3,0,0,1-.81,2.16,4.57,4.57,0,0,1-2.18,1.2v0a4.77,4.77,0,0,1,1.53.37,4.12,4.12,0,0,1,1.23.79,3.61,3.61,0,0,1,.81,1.12,3.37,3.37,0,0,1,.29,1.37,3.29,3.29,0,0,1-.6,2,4.1,4.1,0,0,1-1.54,1.27,7.05,7.05,0,0,1-2.14.66,14.78,14.78,0,0,1-2.38.19h-5.08Zm2,6.3h2.8a10.9,10.9,0,0,0,1.41-.08,4,4,0,0,0,1.24-.34,2.32,2.32,0,0,0,.89-.74,2.08,2.08,0,0,0,.34-1.25,1.9,1.9,0,0,0-.31-1.12,2.2,2.2,0,0,0-.84-.69A4,4,0,0,0,131,9.24a8.42,8.42,0,0,0-1.33-.1h-3Zm0,6.94h3.43a8.24,8.24,0,0,0,1.48-.14,4.77,4.77,0,0,0,1.32-.44,2.58,2.58,0,0,0,1-.8,1.94,1.94,0,0,0,.37-1.21,2.31,2.31,0,0,0-.35-1.3,2.65,2.65,0,0,0-.92-.84,4,4,0,0,0-1.3-.44,9.32,9.32,0,0,0-1.51-.13h-3.47Z"/><path class="cls-2" d="M139.21,8.7a1.09,1.09,0,0,1,.4-.84,1.39,1.39,0,0,1,1-.36,1.41,1.41,0,0,1,1,.36,1.12,1.12,0,0,1,.4.84,1.08,1.08,0,0,1-.39.86,1.61,1.61,0,0,1-2,0A1.1,1.1,0,0,1,139.21,8.7Zm.43,3.84h1.88v9.83h-1.88Z"/><path class="cls-2" d="M145.26,14.88c0-.45,0-.87,0-1.26a10.59,10.59,0,0,1-.05-1.08h1.78c0,.27,0,.54,0,.8s0,.54,0,.82h0a2.82,2.82,0,0,1,.54-.69,4.12,4.12,0,0,1,.83-.6,5.16,5.16,0,0,1,1.09-.42,5.32,5.32,0,0,1,1.3-.16,5.47,5.47,0,0,1,1.91.3,3.53,3.53,0,0,1,1.34.82,3.12,3.12,0,0,1,.78,1.27,5,5,0,0,1,.26,1.62v6.07h-1.88v-5.9a2.83,2.83,0,0,0-.63-2,2.49,2.49,0,0,0-2-.71,4.17,4.17,0,0,0-1.58.28,2.69,2.69,0,0,0-1.08.78,3.31,3.31,0,0,0-.63,1.19,5.29,5.29,0,0,0-.21,1.53v4.79h-1.87Z"/><path class="cls-2" d="M170.8,7.5h1.9L180,22.37h-2.36l-1.73-3.65h-8.53l-1.76,3.65h-2.29Zm.91,2.27h0l-3.55,7.31h7Z"/><path class="cls-2" d="M191.25,20.63h0a4.21,4.21,0,0,1-1.68,1.42,5.89,5.89,0,0,1-2.66.58,6.22,6.22,0,0,1-2.23-.39,5.51,5.51,0,0,1-1.78-1.08,4.94,4.94,0,0,1-1.19-1.64,5,5,0,0,1,1.2-5.76,5.54,5.54,0,0,1,1.87-1.08,7.18,7.18,0,0,1,2.42-.39,5.68,5.68,0,0,1,2.25.44,5.74,5.74,0,0,1,1.8,1.24h0V6.5h1.88V22.37h-1.88Zm0-3.17A3.77,3.77,0,0,0,191,16a3.34,3.34,0,0,0-.81-1.15,3.83,3.83,0,0,0-1.26-.78,4.87,4.87,0,0,0-3.31,0,3.83,3.83,0,0,0-1.26.78,3.34,3.34,0,0,0-.81,1.15,3.84,3.84,0,0,0,0,2.88,3.43,3.43,0,0,0,.81,1.15,3.83,3.83,0,0,0,1.26.78,5,5,0,0,0,3.31,0,3.83,3.83,0,0,0,1.26-.78A3.43,3.43,0,0,0,191,18.9,3.77,3.77,0,0,0,191.25,17.46Z"/><path class="cls-2" d="M206.68,20.59a5.74,5.74,0,0,1-2.22,1.58,8,8,0,0,1-2.8.46,6.64,6.64,0,0,1-2.38-.41,5.42,5.42,0,0,1-1.8-1.11,4.72,4.72,0,0,1-1.13-1.64,5.22,5.22,0,0,1-.4-2,5,5,0,0,1,.44-2.09,4.9,4.9,0,0,1,1.2-1.64,5.71,5.71,0,0,1,1.83-1.06,6.93,6.93,0,0,1,2.32-.38,6.58,6.58,0,0,1,2.17.35,4.79,4.79,0,0,1,1.69,1,4.44,4.44,0,0,1,1.1,1.61,5.76,5.76,0,0,1,.39,2.18V18H198a3.06,3.06,0,0,0,.35,1.21,3.51,3.51,0,0,0,.78,1,3.66,3.66,0,0,0,1.13.68,3.89,3.89,0,0,0,1.42.25,5.16,5.16,0,0,0,2.08-.37,4.75,4.75,0,0,0,1.51-1.12Zm-1.62-4a2.67,2.67,0,0,0-.93-2,3.64,3.64,0,0,0-2.47-.77,4,4,0,0,0-2.54.77,3.11,3.11,0,0,0-1.14,2Z"/><path class="cls-2" d="M210.17,6.5h1.88V22.37h-1.88Z"/><path class="cls-2" d="M57.87,33.88h1v5.67h3.82v.7H57.87Z"/><path class="cls-2" d="M63.52,36.58a2.8,2.8,0,0,1,1-.49,4.38,4.38,0,0,1,1.19-.16,2.84,2.84,0,0,1,1.77.44A1.64,1.64,0,0,1,68,37.71v1.81a2.3,2.3,0,0,0,0,.37,1.93,1.93,0,0,0,.06.36h-.89a1.07,1.07,0,0,1,0-.32v-.31h0a2,2,0,0,1-.72.53,2.62,2.62,0,0,1-1.09.21,4,4,0,0,1-.8-.08,2.92,2.92,0,0,1-.65-.24,1.52,1.52,0,0,1-.44-.39.93.93,0,0,1-.16-.54,1,1,0,0,1,.35-.82,2.34,2.34,0,0,1,.88-.43,5,5,0,0,1,1.13-.18c.4,0,.78,0,1.11,0h.36v-.13a.78.78,0,0,0-.36-.7,1.91,1.91,0,0,0-1-.23,3.72,3.72,0,0,0-.88.11,2.4,2.4,0,0,0-.76.35Zm2.67,1.64a4,4,0,0,0-1.4.2.65.65,0,0,0-.52.62.59.59,0,0,0,.34.57,2,2,0,0,0,.87.16,2.11,2.11,0,0,0,.7-.1,1.42,1.42,0,0,0,.5-.28A1.08,1.08,0,0,0,67,39a1.36,1.36,0,0,0,.12-.49v-.28Z"/><path class="cls-2" d="M75.62,40.25h-.9L73.15,37h0l-1.39,3.24h-.95L69,36h1l1.26,3.24h0L72.73,36h1l1.45,3.24h0L76.41,36h1Z"/><path class="cls-2" d="M81.17,36.62H79.83v3.63h-.92V36.62h-1.2V36h1.2v-.95a2.19,2.19,0,0,1,.1-.7,1.31,1.31,0,0,1,.32-.56,1.57,1.57,0,0,1,.61-.36,2.78,2.78,0,0,1,.93-.13l.37,0a.88.88,0,0,1,.33.08l-.13.63a2.27,2.27,0,0,0-.62-.09,1.34,1.34,0,0,0-.55.09.6.6,0,0,0-.3.26.85.85,0,0,0-.12.4c0,.16,0,.33,0,.51V36h1.34Zm.64-2.23A.44.44,0,0,1,82,34a.84.84,0,0,1,1,0,.44.44,0,0,1,.19.36.44.44,0,0,1-.19.37.72.72,0,0,1-.48.14.74.74,0,0,1-.48-.14A.44.44,0,0,1,81.81,34.39ZM82,36h.92v4.21H82Z"/><path class="cls-2" d="M84.77,37a4.5,4.5,0,0,0,0-.54c0-.17,0-.32,0-.46h.87c0,.11,0,.23,0,.34s0,.23,0,.35h0a1.39,1.39,0,0,1,.26-.3,2,2,0,0,1,.41-.25,2.07,2.07,0,0,1,.53-.18,2.62,2.62,0,0,1,.64-.07,2,2,0,0,1,.37,0l-.06.72a1.93,1.93,0,0,0-.49-.06,1.58,1.58,0,0,0-1.23.42,1.61,1.61,0,0,0-.38,1.15v2h-.92Z"/><path class="cls-2" d="M88.91,37a4.61,4.61,0,0,0,0-.54,3.78,3.78,0,0,1,0-.46h.87c0,.11,0,.23,0,.34s0,.23,0,.35h0a1.39,1.39,0,0,1,.26-.3,1.79,1.79,0,0,1,.41-.25A1.94,1.94,0,0,1,91,36a2.48,2.48,0,0,1,.63-.07,2.65,2.65,0,0,1,.75.09,1.8,1.8,0,0,1,.5.2,1.18,1.18,0,0,1,.31.26l.19.25a2.3,2.3,0,0,1,.7-.59,2.26,2.26,0,0,1,1-.21,3.53,3.53,0,0,1,1,.12,1.68,1.68,0,0,1,.65.35,1.36,1.36,0,0,1,.35.56,2.38,2.38,0,0,1,.11.73v2.56h-.92V37.73a1.52,1.52,0,0,0-.06-.42.91.91,0,0,0-.21-.37,1,1,0,0,0-.42-.26,1.74,1.74,0,0,0-.65-.1,1.69,1.69,0,0,0-.56.09,1.41,1.41,0,0,0-.45.25,1.3,1.3,0,0,0-.31.39,1.19,1.19,0,0,0-.11.51v2.43H92.6V37.87a1.54,1.54,0,0,0-.25-1,1,1,0,0,0-.81-.29,2.18,2.18,0,0,0-.77.12,1.2,1.2,0,0,0-.53.33,1.32,1.32,0,0,0-.31.51,2.28,2.28,0,0,0-.1.66v2h-.92Z"/><path class="cls-2" d="M107,39.33a3.91,3.91,0,0,1-1.09.76,3.28,3.28,0,0,1-1.41.27,4.17,4.17,0,0,1-1-.12,2.73,2.73,0,0,1-.85-.36,2.06,2.06,0,0,1-.57-.57,1.36,1.36,0,0,1-.22-.77,1.32,1.32,0,0,1,.15-.62,1.58,1.58,0,0,1,.4-.5A2.58,2.58,0,0,1,103,37a5.07,5.07,0,0,1,.71-.31A4.58,4.58,0,0,1,103,36a1.26,1.26,0,0,1-.29-.81,1.24,1.24,0,0,1,.17-.63,1.63,1.63,0,0,1,.48-.46,2.2,2.2,0,0,1,.68-.27,3.12,3.12,0,0,1,.82-.1,3.53,3.53,0,0,1,.81.09,2.18,2.18,0,0,1,.66.27,1.27,1.27,0,0,1,.45.44,1.12,1.12,0,0,1,.17.61,1,1,0,0,1-.16.55,1.88,1.88,0,0,1-.41.44,3.21,3.21,0,0,1-.57.35,5.78,5.78,0,0,1-.63.28l1.77,1.43,1.12-1.43h1.12l-1.6,2,1.9,1.49h-1.35Zm-2.69-2.18-.53.24a4.19,4.19,0,0,0-.47.29,1.47,1.47,0,0,0-.34.37.82.82,0,0,0-.13.46A.86.86,0,0,0,103,39a1.25,1.25,0,0,0,.35.38,1.67,1.67,0,0,0,.52.25,2.33,2.33,0,0,0,1.21,0,2,2,0,0,0,.5-.2,3.23,3.23,0,0,0,.44-.27l.41-.34Zm.25-.82.48-.2a2.4,2.4,0,0,0,.45-.25,1.4,1.4,0,0,0,.33-.31.67.67,0,0,0,.13-.41.61.61,0,0,0-.31-.55,1.32,1.32,0,0,0-.75-.2,1.56,1.56,0,0,0-.85.22.72.72,0,0,0-.35.63.69.69,0,0,0,.18.47,3.41,3.41,0,0,0,.39.37Z"/><path class="cls-2" d="M113.75,33.88h1v5.67h3.82v.7h-4.81Z"/><path class="cls-2" d="M124.4,39.49a2.71,2.71,0,0,1-1.08.67,4.39,4.39,0,0,1-1.37.2,3.59,3.59,0,0,1-1.17-.18,2.64,2.64,0,0,1-.88-.47,2.19,2.19,0,0,1-.55-.7,2,2,0,0,1-.19-.87,1.91,1.91,0,0,1,.21-.89,2.08,2.08,0,0,1,.59-.7,2.78,2.78,0,0,1,.89-.46,3.77,3.77,0,0,1,1.13-.16,3.53,3.53,0,0,1,1.06.15,2.47,2.47,0,0,1,.84.43,1.88,1.88,0,0,1,.53.69,2.18,2.18,0,0,1,.19.93v.23h-4.45a1.14,1.14,0,0,0,.17.52,1.55,1.55,0,0,0,.38.43,1.92,1.92,0,0,0,.55.29,2.28,2.28,0,0,0,.7.11,2.71,2.71,0,0,0,1-.16,2.25,2.25,0,0,0,.74-.48Zm-.79-1.71a1.14,1.14,0,0,0-.45-.88,2,2,0,0,0-1.21-.32,2.17,2.17,0,0,0-1.24.32,1.3,1.3,0,0,0-.56.88Z"/><path class="cls-2" d="M131.53,40.06a2.11,2.11,0,0,1-.77,1.76,3.65,3.65,0,0,1-2.24.59,5.45,5.45,0,0,1-1.46-.18,4,4,0,0,1-1.25-.62l.66-.58a3.4,3.4,0,0,0,.93.55,3.21,3.21,0,0,0,1.12.18,3,3,0,0,0,1-.14,1.54,1.54,0,0,0,.64-.38,1.22,1.22,0,0,0,.33-.54,2,2,0,0,0,.1-.64v-.54h0a1.94,1.94,0,0,1-.85.6,3.32,3.32,0,0,1-1.09.18,4.1,4.1,0,0,1-1.2-.16,3.16,3.16,0,0,1-.92-.45,2,2,0,0,1-.6-.68,1.83,1.83,0,0,1-.21-.87,2,2,0,0,1,.8-1.62,3.08,3.08,0,0,1,.93-.44,4.48,4.48,0,0,1,1.2-.15,3.25,3.25,0,0,1,1.11.2,1.64,1.64,0,0,1,.83.63h0V36h.92Zm-4.83-1.92a1.21,1.21,0,0,0,.15.6,1.47,1.47,0,0,0,.42.48,2.13,2.13,0,0,0,.62.32,2.27,2.27,0,0,0,.75.12,2.74,2.74,0,0,0,.84-.13,1.79,1.79,0,0,0,.61-.34,1.32,1.32,0,0,0,.52-1.06,1.46,1.46,0,0,0-.14-.63,1.57,1.57,0,0,0-.4-.49,2.08,2.08,0,0,0-.63-.32,2.86,2.86,0,0,0-.8-.11,2.53,2.53,0,0,0-.8.12,1.88,1.88,0,0,0-.61.33,1.45,1.45,0,0,0-.39.5A1.27,1.27,0,0,0,126.7,38.14Z"/><path class="cls-2" d="M133.15,36.58a2.8,2.8,0,0,1,1-.49,4.3,4.3,0,0,1,1.18-.16,2.85,2.85,0,0,1,1.78.44,1.66,1.66,0,0,1,.53,1.34v1.81a2.31,2.31,0,0,0,0,.37,1.93,1.93,0,0,0,.06.36h-.89a1.07,1.07,0,0,1,0-.32c0-.12,0-.22,0-.31h0a1.94,1.94,0,0,1-.73.53,2.54,2.54,0,0,1-1.08.21,4,4,0,0,1-.8-.08,2.75,2.75,0,0,1-.65-.24,1.52,1.52,0,0,1-.44-.39.93.93,0,0,1-.16-.54,1,1,0,0,1,.35-.82,2.26,2.26,0,0,1,.88-.43,5,5,0,0,1,1.13-.18c.4,0,.77,0,1.11,0h.35v-.13a.8.8,0,0,0-.35-.7,1.91,1.91,0,0,0-1-.23,3.72,3.72,0,0,0-.88.11,2.31,2.31,0,0,0-.76.35Zm2.67,1.64a4.14,4.14,0,0,0-1.41.2.66.66,0,0,0-.52.62.59.59,0,0,0,.35.57,2,2,0,0,0,.87.16,2.11,2.11,0,0,0,.7-.1,1.42,1.42,0,0,0,.5-.28,1.2,1.2,0,0,0,.31-.4,1.17,1.17,0,0,0,.11-.49v-.28Z"/><path class="cls-2" d="M139.42,33.45h.92v6.8h-.92Z"/><path class="cls-2" d="M151.24,35.19a2.41,2.41,0,0,0-.93-.58,3.48,3.48,0,0,0-1.16-.19,3.78,3.78,0,0,0-1.28.21,3.37,3.37,0,0,0-1,.58,2.54,2.54,0,0,0-.66.85,2.23,2.23,0,0,0-.24,1,2.27,2.27,0,0,0,.24,1,2.51,2.51,0,0,0,.65.84,3,3,0,0,0,1,.56,4.13,4.13,0,0,0,2.66,0,3,3,0,0,0,1-.66l.74.48a3.47,3.47,0,0,1-1.36.84,5.58,5.58,0,0,1-1.8.27,5.38,5.38,0,0,1-1.68-.25,4.37,4.37,0,0,1-1.34-.7,3.34,3.34,0,0,1-.9-1.05,2.92,2.92,0,0,1-.32-1.35,2.84,2.84,0,0,1,.31-1.31,3.18,3.18,0,0,1,.88-1.06,4.28,4.28,0,0,1,1.34-.71,5.2,5.2,0,0,1,1.71-.26,5.49,5.49,0,0,1,1.63.23,3.14,3.14,0,0,1,1.32.76Z"/><path class="cls-2" d="M153.2,38.14a1.83,1.83,0,0,1,.23-.9,2.11,2.11,0,0,1,.61-.69,2.89,2.89,0,0,1,.93-.46,4.43,4.43,0,0,1,2.36,0,2.89,2.89,0,0,1,.93.46,2.11,2.11,0,0,1,.61.69,2,2,0,0,1,0,1.8,2.15,2.15,0,0,1-.61.7,2.89,2.89,0,0,1-.93.46,4.43,4.43,0,0,1-2.36,0,2.89,2.89,0,0,1-.93-.46,2.15,2.15,0,0,1-.61-.7A1.83,1.83,0,0,1,153.2,38.14Zm1,0a1.41,1.41,0,0,0,.14.62,1.54,1.54,0,0,0,.39.5,2,2,0,0,0,.62.33,2.79,2.79,0,0,0,1.62,0,2,2,0,0,0,.62-.33,1.54,1.54,0,0,0,.39-.5,1.42,1.42,0,0,0,0-1.23,1.45,1.45,0,0,0-.39-.5,2,2,0,0,0-.62-.33,2.79,2.79,0,0,0-1.62,0,2,2,0,0,0-.62.33,1.45,1.45,0,0,0-.39.5A1.4,1.4,0,0,0,154.19,38.14Z"/><path class="cls-2" d="M160.52,37c0-.2,0-.37,0-.54a3.93,3.93,0,0,1,0-.46h.87c0,.11,0,.23,0,.34s0,.23,0,.35h0a1.46,1.46,0,0,1,.27-.3,2,2,0,0,1,.4-.25,2.21,2.21,0,0,1,.53-.18,2.62,2.62,0,0,1,.64-.07,3,3,0,0,1,.94.13,1.76,1.76,0,0,1,.65.35,1.36,1.36,0,0,1,.38.54,1.78,1.78,0,0,1,.13.7v2.6h-.92V37.72a1.1,1.1,0,0,0-.31-.84,1.3,1.3,0,0,0-.95-.3,2.18,2.18,0,0,0-.77.12,1.14,1.14,0,0,0-.53.33,1.32,1.32,0,0,0-.31.51,2,2,0,0,0-.1.66v2h-.92Z"/><path class="cls-2" d="M167.19,39.14a2.13,2.13,0,0,0,.59.42,2,2,0,0,0,.82.15,2.09,2.09,0,0,0,.43,0,1.56,1.56,0,0,0,.4-.11.86.86,0,0,0,.28-.21.42.42,0,0,0,.11-.29.45.45,0,0,0-.1-.28.91.91,0,0,0-.27-.18,1.89,1.89,0,0,0-.38-.12l-.43-.08c-.26,0-.51-.09-.74-.15a2.37,2.37,0,0,1-.62-.21,1.23,1.23,0,0,1-.43-.34.86.86,0,0,1-.16-.53.88.88,0,0,1,.18-.54,1.48,1.48,0,0,1,.47-.38A2.72,2.72,0,0,1,168,36a3.84,3.84,0,0,1,.76-.08,3.16,3.16,0,0,1,1.09.18,1.54,1.54,0,0,1,.78.59l-.77.38a1.19,1.19,0,0,0-.46-.36,1.65,1.65,0,0,0-.7-.14l-.39,0a1.51,1.51,0,0,0-.34.11.73.73,0,0,0-.26.19.39.39,0,0,0-.1.25.31.31,0,0,0,.11.23,1.27,1.27,0,0,0,.31.17,2.44,2.44,0,0,0,.45.12l.52.1a6.72,6.72,0,0,1,.7.13,2.81,2.81,0,0,1,.58.23,1.2,1.2,0,0,1,.38.36,1,1,0,0,1,.15.54,1,1,0,0,1-.19.61,1.55,1.55,0,0,1-.5.41,3,3,0,0,1-.71.23,5.31,5.31,0,0,1-.81.07,4,4,0,0,1-1.22-.17,2.1,2.1,0,0,1-.92-.61Z"/><path class="cls-2" d="M176.9,39.25a4.7,4.7,0,0,0,0,.54,3.78,3.78,0,0,1,0,.46h-.87c0-.11,0-.23,0-.34s0-.23,0-.35h0a1.16,1.16,0,0,1-.26.29,1.51,1.51,0,0,1-.41.26,1.94,1.94,0,0,1-.53.18,2.53,2.53,0,0,1-.63.07,2.92,2.92,0,0,1-.94-.13,1.76,1.76,0,0,1-.65-.35,1.39,1.39,0,0,1-.39-.54,2,2,0,0,1-.12-.7V36H173v2.53a1.14,1.14,0,0,0,.3.84,1.35,1.35,0,0,0,1,.3,2.18,2.18,0,0,0,.77-.12,1.41,1.41,0,0,0,.53-.33,1.32,1.32,0,0,0,.31-.51,2.28,2.28,0,0,0,.1-.66V36h.92Z"/><path class="cls-2" d="M178.72,33.45h.92v6.8h-.92Z"/><path class="cls-2" d="M184.48,36.62h-1.62v2.12c0,.13,0,.26,0,.38a.75.75,0,0,0,.09.31.63.63,0,0,0,.25.2,1.17,1.17,0,0,0,.47.08,1.9,1.9,0,0,0,.41,0,2.46,2.46,0,0,0,.41-.1l0,.64a2.65,2.65,0,0,1-.52.11,3.65,3.65,0,0,1-.55,0,2.45,2.45,0,0,1-.79-.1,1.09,1.09,0,0,1-.46-.28,1,1,0,0,1-.22-.45,3.42,3.42,0,0,1-.05-.59V36.62h-1.2V36h1.2v-1.2h.92V36h1.62Z"/><path class="cls-2" d="M185.54,36.58a2.8,2.8,0,0,1,1-.49,4.32,4.32,0,0,1,1.19-.16,2.84,2.84,0,0,1,1.77.44,1.63,1.63,0,0,1,.53,1.34v1.81a2.31,2.31,0,0,0,0,.37,1.93,1.93,0,0,0,.06.36h-.89a1.07,1.07,0,0,1-.05-.32c0-.12,0-.22,0-.31h0a2,2,0,0,1-.72.53,2.62,2.62,0,0,1-1.09.21,4,4,0,0,1-.8-.08,2.75,2.75,0,0,1-.65-.24,1.52,1.52,0,0,1-.44-.39.93.93,0,0,1-.16-.54,1,1,0,0,1,.35-.82,2.34,2.34,0,0,1,.88-.43,5,5,0,0,1,1.13-.18c.4,0,.77,0,1.11,0h.36v-.13a.78.78,0,0,0-.36-.7,1.91,1.91,0,0,0-1-.23,3.72,3.72,0,0,0-.88.11,2.31,2.31,0,0,0-.76.35Zm2.67,1.64a4.14,4.14,0,0,0-1.41.2.65.65,0,0,0-.51.62.59.59,0,0,0,.34.57,2,2,0,0,0,.87.16,2.11,2.11,0,0,0,.7-.1,1.42,1.42,0,0,0,.5-.28A1.2,1.2,0,0,0,189,39a1.36,1.36,0,0,0,.12-.49v-.28Z"/><path class="cls-2" d="M194.75,36.62h-1.63v2.12c0,.13,0,.26,0,.38a.63.63,0,0,0,.1.31.54.54,0,0,0,.24.2,1.17,1.17,0,0,0,.47.08,2.06,2.06,0,0,0,.42,0,2.6,2.6,0,0,0,.4-.1l0,.64a2.65,2.65,0,0,1-.52.11,3.56,3.56,0,0,1-.55,0,2.45,2.45,0,0,1-.79-.1,1.09,1.09,0,0,1-.46-.28,1,1,0,0,1-.22-.45,3.42,3.42,0,0,1-.05-.59V36.62H191V36h1.2v-1.2h.92V36h1.63Z"/><path class="cls-2" d="M195.75,34.39a.44.44,0,0,1,.19-.36.76.76,0,0,1,.48-.15.72.72,0,0,1,.47.15.45.45,0,0,1,.2.36.44.44,0,0,1-.19.37.74.74,0,0,1-.48.14.77.77,0,0,1-.49-.14A.46.46,0,0,1,195.75,34.39ZM196,36h.92v4.21H196Z"/><path class="cls-2" d="M198.39,38.14a1.82,1.82,0,0,1,.22-.9,2.11,2.11,0,0,1,.61-.69,2.89,2.89,0,0,1,.93-.46,4.43,4.43,0,0,1,2.36,0,2.89,2.89,0,0,1,.93.46,2.11,2.11,0,0,1,.61.69,1.88,1.88,0,0,1,0,1.8,2.15,2.15,0,0,1-.61.7,2.89,2.89,0,0,1-.93.46,4.43,4.43,0,0,1-2.36,0,2.89,2.89,0,0,1-.93-.46,2.15,2.15,0,0,1-.61-.7A1.82,1.82,0,0,1,198.39,38.14Zm1,0a1.41,1.41,0,0,0,.13.62,1.45,1.45,0,0,0,.4.5,1.88,1.88,0,0,0,.61.33,2.79,2.79,0,0,0,1.62,0,2,2,0,0,0,.62-.33,1.54,1.54,0,0,0,.39-.5,1.42,1.42,0,0,0,0-1.23,1.45,1.45,0,0,0-.39-.5,2,2,0,0,0-.62-.33,2.79,2.79,0,0,0-1.62,0,1.88,1.88,0,0,0-.61.33,1.36,1.36,0,0,0-.4.5A1.39,1.39,0,0,0,199.38,38.14Z"/><path class="cls-2" d="M205.7,37c0-.2,0-.37,0-.54a3.93,3.93,0,0,1,0-.46h.88c0,.11,0,.23,0,.34s0,.23,0,.35h0a1.46,1.46,0,0,1,.27-.3,1.79,1.79,0,0,1,.41-.25,1.94,1.94,0,0,1,.53-.18,2.48,2.48,0,0,1,.63-.07,3,3,0,0,1,.94.13,1.76,1.76,0,0,1,.65.35,1.36,1.36,0,0,1,.38.54,1.78,1.78,0,0,1,.13.7v2.6h-.92V37.72a1.1,1.1,0,0,0-.31-.84,1.3,1.3,0,0,0-.95-.3,2.18,2.18,0,0,0-.77.12A1.2,1.2,0,0,0,207,37a1.32,1.32,0,0,0-.31.51,2,2,0,0,0-.1.66v2h-.92Z"/></svg>