<svg id="Layer_1" data-name="Layer 1" xmlns="http://www.w3.org/2000/svg" viewBox="0 0 215.88 48"><defs><style>.cls-1{fill:none;}.cls-1,.cls-2{stroke:#002f87;stroke-miterlimit:10;stroke-width:3px;}.cls-2{fill:#fff;}.cls-3{fill:#002f87;}</style></defs><title>Hood Lawfirm</title><circle class="cls-1" cx="189.38" cy="24" r="22"/><path class="cls-2" d="M173.85,29.93c-1-3.33,4.8-8.61,13.15-11.93,8.53-3.39,16.52-3.45,17.84-.14S200.3,26.61,191.76,30a32.9,32.9,0,0,1-12,2.58l3.87-2.24"/><circle class="cls-2" cx="190.21" cy="24" r="5.88"/><path class="cls-3" d="M13.2,27.72A14,14,0,0,1,9,27.18a7.46,7.46,0,0,1-2.68-1.43,4.92,4.92,0,0,1-1.41-2,5.84,5.84,0,0,1-.41-2.14,6.42,6.42,0,0,1,.39-2.17,5.93,5.93,0,0,1,1.21-2c.38.17.74.33,1.08.45s.7.28,1,.44A4.8,4.8,0,0,0,7.31,20,5.43,5.43,0,0,0,7,21.65,3.88,3.88,0,0,0,7.32,23a3.51,3.51,0,0,0,1,1.34,5.66,5.66,0,0,0,1.93,1.05,9.78,9.78,0,0,0,3.11.42,10.16,10.16,0,0,0,2.36-.27,6.69,6.69,0,0,0,2-.82,4.42,4.42,0,0,0,1.41-1.41,3.84,3.84,0,0,0,.53-2.07V5.17h2.45v16a5.66,5.66,0,0,1-.64,2.7,6.18,6.18,0,0,1-1.82,2.07,9,9,0,0,1-2.83,1.35A13.33,13.33,0,0,1,13.2,27.72Z"/><path class="cls-3" d="M26.07,22.37V20.45h9.1V17.37a3.77,3.77,0,0,0-.31-1.65,2.31,2.31,0,0,0-.93-1,3.92,3.92,0,0,0-1.47-.48,14.41,14.41,0,0,0-2-.12H27.92V12.27h3.36a14.46,14.46,0,0,1,2.39.19,5.74,5.74,0,0,1,2,.73,4,4,0,0,1,1.43,1.48,4.86,4.86,0,0,1,.54,2.45v5.25Z"/><path class="cls-3" d="M42.39,5.17h2.52V20.45h2.45c.48,0,.72.15.72.43v.92q0,.57-.72.57h-5Z"/><path class="cls-3" d="M46.88,22.37q-.72,0-.72-.42V21q0-.57.72-.57h5.06a5.4,5.4,0,0,1-1.24-.92,4.67,4.67,0,0,1-.77-1,4.36,4.36,0,0,1-.41-1,4.07,4.07,0,0,1-.12-1,3.79,3.79,0,0,1,.37-1.65,4.07,4.07,0,0,1,1.16-1.42,6,6,0,0,1,2-1,10.75,10.75,0,0,1,3-.37c.42,0,.87,0,1.36.05l1.59.12c0,.36-.09.69-.13,1s-.09.59-.15.93c-.42-.05-.8-.09-1.13-.11s-.72,0-1.14,0a5.73,5.73,0,0,0-3.23.77A2.41,2.41,0,0,0,52,16.86a2.56,2.56,0,0,0,.49,1.55,3.75,3.75,0,0,0,1.32,1.12,7.57,7.57,0,0,0,1.9.68,10.24,10.24,0,0,0,2.26.24H60.2v1.92Z"/><path class="cls-3" d="M91.47,20.45c.48,0,.72.15.72.43v.92q0,.57-.72.57h-.79a7.67,7.67,0,0,1-1.74-.19,2.15,2.15,0,0,1-1.3-.8,6.51,6.51,0,0,1-1.07,3,7,7,0,0,1-2.1,2,9.21,9.21,0,0,1-2.77,1.09,14.15,14.15,0,0,1-3,.33,13.92,13.92,0,0,1-4.22-.54,7.51,7.51,0,0,1-2.69-1.43,4.92,4.92,0,0,1-1.41-2,6.06,6.06,0,0,1-.41-2.14,5.93,5.93,0,0,1,.44-2.18,6.67,6.67,0,0,1,1.22-2l2.08.91A5.35,5.35,0,0,0,72.79,20a5.21,5.21,0,0,0-.29,1.64,3.75,3.75,0,0,0,.3,1.43,3.52,3.52,0,0,0,1,1.35,5.74,5.74,0,0,0,2,1,10,10,0,0,0,3,.39,9.62,9.62,0,0,0,2.76-.36,6.11,6.11,0,0,0,2-1,4,4,0,0,0,1.17-1.41,3.67,3.67,0,0,0,.4-1.67,6.87,6.87,0,0,0-.46-2.32,9,9,0,0,0-1.27-2.31c.46-.19.86-.37,1.21-.53s.72-.33,1.14-.5a13.58,13.58,0,0,1,.85,1.56c.23.49.42.95.57,1.36a3.15,3.15,0,0,0,.44.9,1.53,1.53,0,0,0,.64.54,3.38,3.38,0,0,0,1,.28,10.06,10.06,0,0,0,1.46.08ZM78,11.07a1,1,0,0,1,.42-.78,1.79,1.79,0,0,1,2,0,.92.92,0,0,1,0,1.56,1.79,1.79,0,0,1-2,0A1,1,0,0,1,78,11.07Z"/><path class="cls-3" d="M91,22.37q-.72,0-.72-.42V21q0-.57.72-.57h4.71v-7.2h2.51v9.12Zm4.3,3.87a.94.94,0,0,1,.42-.78,1.64,1.64,0,0,1,1-.33,1.6,1.6,0,0,1,1,.33.93.93,0,0,1,.43.78,1,1,0,0,1-.43.78,1.65,1.65,0,0,1-1,.32,1.7,1.7,0,0,1-1-.32A1,1,0,0,1,95.33,26.24Z"/><path class="cls-3" d="M110.37,22.37V20.45h9.1V17.37a3.77,3.77,0,0,0-.31-1.65,2.31,2.31,0,0,0-.93-1,3.92,3.92,0,0,0-1.47-.48,14.41,14.41,0,0,0-2-.12h-2.58V12.27h3.36a14.46,14.46,0,0,1,2.39.19,5.74,5.74,0,0,1,2,.73,4,4,0,0,1,1.43,1.48,4.86,4.86,0,0,1,.54,2.45v5.25Z"/><path class="cls-3" d="M141.73,20.45c.49,0,.73.15.73.43v.92c0,.38-.24.57-.73.57h-3.45a5.31,5.31,0,0,1-.63,2.55A4.87,4.87,0,0,1,136,26.65a7.53,7.53,0,0,1-2.49,1,15.59,15.59,0,0,1-3.17.3l-1.35,0a11.83,11.83,0,0,1-1.42-.12c.05-.33.08-.65.11-.93s.07-.59.11-.89l1.42.08c.46,0,.9,0,1.32,0a14.45,14.45,0,0,0,2-.14,4.76,4.76,0,0,0,1.68-.56,3.11,3.11,0,0,0,1.16-1.12,3.7,3.7,0,0,0,.47-1.88h-2.92a10.73,10.73,0,0,1-3.15-.4,6.61,6.61,0,0,1-2.11-1.06,3.88,3.88,0,0,1-1.16-1.48,4.11,4.11,0,0,1-.36-1.66,4.88,4.88,0,0,1,.47-2.1A5.36,5.36,0,0,1,128,13.93a6.34,6.34,0,0,1,2-1.18,7.28,7.28,0,0,1,2.56-.43,8.12,8.12,0,0,1,2.41.33,5.53,5.53,0,0,1,1.81.94,4,4,0,0,1,1.13,1.46,4.43,4.43,0,0,1,.39,1.86v3.54Zm-5.9,0V17.68a3.22,3.22,0,0,0-3.48-3.51,4.88,4.88,0,0,0-1.42.21,3.63,3.63,0,0,0-1.2.64,3.35,3.35,0,0,0-.84,1,2.69,2.69,0,0,0-.31,1.3,2.88,2.88,0,0,0,.34,1.45,2.76,2.76,0,0,0,1,1,4.07,4.07,0,0,0,1.35.54,6.83,6.83,0,0,0,1.6.17Z"/><path class="cls-3" d="M141.29,22.37q-.72,0-.72-.42V21q0-.57.72-.57h3.87a8.19,8.19,0,0,1,.55-3.05A7.14,7.14,0,0,1,147.25,15a7.83,7.83,0,0,1,2.38-1.69,9.5,9.5,0,0,1,3.09-.81V11h2.08v1.49a12,12,0,0,1,3.46.75,7.3,7.3,0,0,1,2.42,1.48,5.64,5.64,0,0,1,1.41,2.12,7.16,7.16,0,0,1,.46,2.61v2.95Zm11.43-8.16a6.08,6.08,0,0,0-3.83,1.7,5.41,5.41,0,0,0-1.44,4v.55h5.27Zm2.08,6.24H160V19.23a4.84,4.84,0,0,0-.4-2.05,4.2,4.2,0,0,0-1.1-1.49,5.6,5.6,0,0,0-1.66-1,8.8,8.8,0,0,0-2.08-.52Z"/><path class="cls-3" d="M10.94,39.45c.19,0,.29.06.29.18V40c0,.16-.1.24-.29.24H7.72a4.36,4.36,0,0,1-1.28-.17,2.42,2.42,0,0,1-.85-.44A1.57,1.57,0,0,1,5.12,39a1.8,1.8,0,0,1-.15-.7,1.92,1.92,0,0,1,.2-.88,2.35,2.35,0,0,1,.54-.72,2.49,2.49,0,0,1,.82-.49,3,3,0,0,1,1-.18,3.24,3.24,0,0,1,1,.14,2.09,2.09,0,0,1,.74.39,1.73,1.73,0,0,1,.46.61,1.85,1.85,0,0,1,.17.78v1.47Zm-2,0V38.3a1.5,1.5,0,0,0-.36-1.08,1.39,1.39,0,0,0-1-.39,1.69,1.69,0,0,0-.56.09,1.57,1.57,0,0,0-.49.27,1.23,1.23,0,0,0-.34.41,1.08,1.08,0,0,0-.13.54,1.28,1.28,0,0,0,.14.61,1.12,1.12,0,0,0,.38.4,1.69,1.69,0,0,0,.55.23,2.7,2.7,0,0,0,.65.07ZM6.1,34.54a.42.42,0,0,1,.17-.33.68.68,0,0,1,.42-.13.63.63,0,0,1,.41.13.41.41,0,0,1,0,.66.69.69,0,0,1-.41.13.75.75,0,0,1-.42-.13A.42.42,0,0,1,6.1,34.54Zm1.69,0A.4.4,0,0,1,8,34.21a.71.71,0,0,1,.82,0,.41.41,0,0,1,0,.66.71.71,0,0,1-.82,0A.4.4,0,0,1,7.79,34.54Z"/><path class="cls-3" d="M10.75,40.25q-.3,0-.3-.18v-.38q0-.24.3-.24h1.09a.74.74,0,0,0,.62-.21.9.9,0,0,0,.16-.55V36.45h1v1.82a1.39,1.39,0,0,0,.07.46.77.77,0,0,0,.24.38,1.08,1.08,0,0,0,.45.25,2.31,2.31,0,0,0,.69.09h.28c.19,0,.29.06.29.18V40c0,.16-.1.24-.29.24h-.32a2.42,2.42,0,0,1-1-.18,1,1,0,0,1-.56-.59,1.91,1.91,0,0,1-.31.4,1.2,1.2,0,0,1-.37.23,1.94,1.94,0,0,1-.43.11,3.64,3.64,0,0,1-.48,0Zm1,1.61a.39.39,0,0,1,.17-.33.69.69,0,0,1,.41-.13.75.75,0,0,1,.42.13.42.42,0,0,1,.17.33.4.4,0,0,1-.17.32.63.63,0,0,1-.42.14.59.59,0,0,1-.41-.14A.37.37,0,0,1,11.73,41.86Zm1.69,0a.42.42,0,0,1,.17-.33A.71.71,0,0,1,14,41.4a.72.72,0,0,1,.42.13.42.42,0,0,1,.17.33.4.4,0,0,1-.17.32.61.61,0,0,1-.42.14.6.6,0,0,1-.41-.14A.4.4,0,0,1,13.42,41.86Z"/><path class="cls-3" d="M15.18,40.25q-.3,0-.3-.18v-.38q0-.24.3-.24h1.91v-3h1v3.8ZM17,34.54a.4.4,0,0,1,.18-.33.71.71,0,0,1,.82,0,.41.41,0,0,1,0,.66.71.71,0,0,1-.82,0A.4.4,0,0,1,17,34.54Z"/><path class="cls-3" d="M26.24,39.45c.19,0,.29.06.29.18V40c0,.16-.1.24-.29.24h-1.4a2.3,2.3,0,0,1-.26,1.06,2,2,0,0,1-.67.72,2.78,2.78,0,0,1-1,.4,5.72,5.72,0,0,1-1.28.13h-.55a5.48,5.48,0,0,1-.57,0c0-.14,0-.27,0-.39s0-.24,0-.37l.58,0h.53a5.36,5.36,0,0,0,.82-.06,2,2,0,0,0,.68-.23,1.27,1.27,0,0,0,.48-.47,1.72,1.72,0,0,0,.19-.78H22.67a4.36,4.36,0,0,1-1.28-.17,2.52,2.52,0,0,1-.85-.44,1.67,1.67,0,0,1-.47-.61,1.8,1.8,0,0,1-.15-.7,2.21,2.21,0,0,1,.19-.88,2.35,2.35,0,0,1,.54-.72,2.49,2.49,0,0,1,.82-.49,2.91,2.91,0,0,1,1-.18,3.31,3.31,0,0,1,1,.14,2.13,2.13,0,0,1,.73.39,1.73,1.73,0,0,1,.46.61,2,2,0,0,1,.16.78v1.47Zm-2.4,0V38.3a1.42,1.42,0,0,0-.38-1.08,1.37,1.37,0,0,0-1-.39,1.84,1.84,0,0,0-.57.09,1.37,1.37,0,0,0-.49.27,1.36,1.36,0,0,0-.34.41,1.2,1.2,0,0,0-.13.54,1.28,1.28,0,0,0,.14.61,1.21,1.21,0,0,0,.38.4,1.78,1.78,0,0,0,.55.23,2.76,2.76,0,0,0,.65.07Z"/><path class="cls-3" d="M26.06,40.25q-.3,0-.3-.18v-.38q0-.24.3-.24H28v-3h1v3.8Zm1.8-5.71a.4.4,0,0,1,.18-.33.71.71,0,0,1,.82,0,.39.39,0,0,1,0,.66.71.71,0,0,1-.82,0A.4.4,0,0,1,27.86,34.54Z"/><path class="cls-3" d="M31,33.08h1v6.37h1q.3,0,.3.18V40q0,.24-.3.24H31Z"/><path class="cls-3" d="M32.85,40.25c-.2,0-.29-.06-.29-.18v-.38c0-.16.09-.24.29-.24h2.09a1.67,1.67,0,0,1-.47-.54,1.44,1.44,0,0,1-.19-.75,1.62,1.62,0,0,1,.2-.78,2.17,2.17,0,0,1,.55-.67,3,3,0,0,1,.87-.47A3.27,3.27,0,0,1,37,36.06a3,3,0,0,1,.93.14,2,2,0,0,1,.7.38,1.79,1.79,0,0,1,.44.58,1.89,1.89,0,0,1,.15.77v1.52h1.13q.3,0,.3.18V40q0,.24-.3.24Zm5.36-.8V37.87a.92.92,0,0,0-.07-.36,1,1,0,0,0-.25-.34,1.13,1.13,0,0,0-.42-.24,1.63,1.63,0,0,0-.61-.1,1.92,1.92,0,0,0-.59.09,1.62,1.62,0,0,0-.5.27,1.25,1.25,0,0,0-.35.41,1.19,1.19,0,0,0-.12.54,1,1,0,0,0,.23.73,1.66,1.66,0,0,0,.5.39,2.41,2.41,0,0,0,.75.19Zm-2.7-4.91a.4.4,0,0,1,.18-.33.71.71,0,0,1,.82,0,.41.41,0,0,1,0,.66.71.71,0,0,1-.82,0A.4.4,0,0,1,35.51,34.54Zm1.7,0a.39.39,0,0,1,.17-.33.63.63,0,0,1,.41-.13.68.68,0,0,1,.42.13.41.41,0,0,1,0,.66.75.75,0,0,1-.42.13.69.69,0,0,1-.41-.13A.39.39,0,0,1,37.21,34.54Z"/><path class="cls-3" d="M40.44,40.25c-.2,0-.29-.06-.29-.18v-.38c0-.16.09-.24.29-.24h1.64V33.08h1v7.17Z"/><path class="cls-3" d="M45.12,33.08h1v7.17h-1Z"/><path class="cls-3" d="M52.26,40.25a3.1,3.1,0,0,1-.88-.11,1.47,1.47,0,0,1-.56-.29,1,1,0,0,1-.3-.43,1.44,1.44,0,0,1-.09-.51V37.33h1V38.7q0,.46.21.6a1.28,1.28,0,0,0,.7.15h6.52v-3h1v3.8ZM54,34.54a.42.42,0,0,1,.17-.33.63.63,0,0,1,.41-.13.66.66,0,0,1,.42.13.41.41,0,0,1,0,.66.72.72,0,0,1-.42.13.69.69,0,0,1-.41-.13A.42.42,0,0,1,54,34.54Zm1.69,0a.42.42,0,0,1,.17-.33.68.68,0,0,1,.42-.13.63.63,0,0,1,.41.13.41.41,0,0,1,0,.66.69.69,0,0,1-.41.13.75.75,0,0,1-.42-.13A.42.42,0,0,1,55.71,34.54Z"/><path class="cls-3" d="M61.92,33.08h1v7.17h-1Z"/><path class="cls-3" d="M67.11,40.29a2.1,2.1,0,0,1-.14.8,2,2,0,0,1-.44.66,2.18,2.18,0,0,1-.72.44,2.67,2.67,0,0,1-1,.16l-.55,0-.38,0c0-.14,0-.28.06-.41A2.5,2.5,0,0,0,64,41.5l.3,0,.26,0h.25a1.17,1.17,0,0,0,1-.34,1.65,1.65,0,0,0,.27-1V36.45h1Z"/><path class="cls-3" d="M69.15,33.08h1v6.37h1q.3,0,.3.18V40q0,.24-.3.24h-2Z"/><path class="cls-3" d="M71,40.25c-.19,0-.29-.06-.29-.18v-.38c0-.16.1-.24.29-.24h2.1a.71.71,0,0,0,.61-.21.9.9,0,0,0,.15-.55V37.45h1v.82a1.63,1.63,0,0,0,.07.45,1,1,0,0,0,.24.38,1.4,1.4,0,0,0,.45.26,2.33,2.33,0,0,0,.7.09h.24c.31,0,.52-.07.61-.21a.9.9,0,0,0,.15-.55V37h1v1.24a1.45,1.45,0,0,0,.07.47.88.88,0,0,0,.24.37,1.11,1.11,0,0,0,.44.25,2.33,2.33,0,0,0,.7.09h.32c.33,0,.54-.07.64-.21a.9.9,0,0,0,.15-.55V36.45h1v1.82a1.39,1.39,0,0,0,.07.46,1,1,0,0,0,.24.38,1.08,1.08,0,0,0,.45.25,2.22,2.22,0,0,0,.69.09h.29q.3,0,.3.18V40q0,.24-.3.24h-.33a2.52,2.52,0,0,1-1-.16,1,1,0,0,1-.59-.61,1.43,1.43,0,0,1-.31.42,1.14,1.14,0,0,1-.38.23,1.43,1.43,0,0,1-.42.1l-.47,0h-.43a2.39,2.39,0,0,1-.95-.16,1.14,1.14,0,0,1-.59-.61,1.36,1.36,0,0,1-.69.62,2.5,2.5,0,0,1-.88.15h-.36a2.47,2.47,0,0,1-1-.16,1.17,1.17,0,0,1-.59-.61,1.52,1.52,0,0,1-.31.41,1.29,1.29,0,0,1-.39.23,2.12,2.12,0,0,1-.45.11l-.51,0Zm5.46-5.71a.42.42,0,0,1,.17-.33.68.68,0,0,1,.42-.13.63.63,0,0,1,.41.13.41.41,0,0,1,0,.66A.69.69,0,0,1,77,35a.75.75,0,0,1-.42-.13A.42.42,0,0,1,76.43,34.54Zm.85-1a.4.4,0,0,1,.18-.33.71.71,0,0,1,.82,0,.4.4,0,0,1,.18.33.41.41,0,0,1-.18.33.71.71,0,0,1-.82,0A.41.41,0,0,1,77.28,33.49Zm.84,1a.4.4,0,0,1,.18-.33.71.71,0,0,1,.82,0,.41.41,0,0,1,0,.66.71.71,0,0,1-.82,0A.4.4,0,0,1,78.12,34.54Z"/><path class="cls-3" d="M83.44,40.25c-.19,0-.29-.06-.29-.18v-.38c0-.16.1-.24.29-.24h1.1a.76.76,0,0,0,.62-.21.9.9,0,0,0,.15-.55V36.45h1v1.82a1.7,1.7,0,0,0,.07.46,1,1,0,0,0,.24.38,1.19,1.19,0,0,0,.46.25,2.2,2.2,0,0,0,.68.09h.28q.3,0,.3.18V40q0,.24-.3.24h-.31a2.47,2.47,0,0,1-1-.18,1,1,0,0,1-.56-.59,1.42,1.42,0,0,1-.31.4,1.16,1.16,0,0,1-.36.23,2.09,2.09,0,0,1-.43.11,3.79,3.79,0,0,1-.49,0Zm.94-5.71a.4.4,0,0,1,.18-.33.71.71,0,0,1,.82,0,.39.39,0,0,1,0,.66.71.71,0,0,1-.82,0A.4.4,0,0,1,84.38,34.54Zm1.7,0a.39.39,0,0,1,.17-.33.63.63,0,0,1,.41-.13.68.68,0,0,1,.42.13.41.41,0,0,1,0,.66.75.75,0,0,1-.42.13.69.69,0,0,1-.41-.13A.39.39,0,0,1,86.08,34.54Z"/><path class="cls-3" d="M87.87,40.25c-.19,0-.29-.06-.29-.18v-.38c0-.16.1-.24.29-.24H90c.31,0,.52-.07.61-.21a.9.9,0,0,0,.15-.55V37.45h1v.82a1.45,1.45,0,0,0,.07.47.79.79,0,0,0,.24.37,1.08,1.08,0,0,0,.45.25,2.2,2.2,0,0,0,.68.09h.33c.32,0,.53-.07.62-.2a1,1,0,0,0,.14-.56V37h1v1.24a1.45,1.45,0,0,0,.07.47,1,1,0,0,0,.24.37,1,1,0,0,0,.44.25,2.31,2.31,0,0,0,.69.09h1v-3h1v3.8h-2.1a2.65,2.65,0,0,1-.94-.15,1,1,0,0,1-.6-.62,1.15,1.15,0,0,1-.28.39,1.41,1.41,0,0,1-.36.24,2.18,2.18,0,0,1-.44.11,3.91,3.91,0,0,1-.49,0h-.43a2.32,2.32,0,0,1-1-.16,1.29,1.29,0,0,1-.61-.61,1.46,1.46,0,0,1-.67.59,2.47,2.47,0,0,1-1,.18Z"/><path class="cls-3" d="M107.26,33.08v7.17h-7v-.8H103V35.07h1v4.38h2.23V33.08Z"/><path class="cls-3" d="M109.29,33.08h1v7.17h-1Z"/><path class="cls-3" d="M114.88,40.25a4.31,4.31,0,0,1-1.28-.17,2.42,2.42,0,0,1-.85-.44,1.57,1.57,0,0,1-.47-.61,1.8,1.8,0,0,1-.15-.7,2.05,2.05,0,0,1,.19-.88,2.35,2.35,0,0,1,.54-.72,2.44,2.44,0,0,1,.81-.49,2.87,2.87,0,0,1,1-.18,3.24,3.24,0,0,1,1,.14,2.09,2.09,0,0,1,.74.39,1.62,1.62,0,0,1,.46.61A1.77,1.77,0,0,1,117,38V40.3a2.22,2.22,0,0,1-.23,1,1.87,1.87,0,0,1-.67.7,3.07,3.07,0,0,1-1,.39,5.75,5.75,0,0,1-1.29.13h-.53c-.19,0-.39,0-.6,0l.1-.76.57,0h.53a5.46,5.46,0,0,0,.82-.06,2,2,0,0,0,.68-.23,1.27,1.27,0,0,0,.48-.47,1.6,1.6,0,0,0,.19-.78Zm1.17-.81V38.29a1.5,1.5,0,0,0-.38-1.08,1.39,1.39,0,0,0-1-.38,1.79,1.79,0,0,0-.57.09,1.77,1.77,0,0,0-.49.26,1.37,1.37,0,0,0-.34.42,1.08,1.08,0,0,0-.13.54,1.27,1.27,0,0,0,.14.6,1,1,0,0,0,.38.4,1.65,1.65,0,0,0,.56.23,2.7,2.7,0,0,0,.65.07Z"/><path class="cls-3" d="M126.18,40.25H124a4.31,4.31,0,0,1-1.28-.17,2.48,2.48,0,0,1-.86-.44,1.67,1.67,0,0,1-.47-.61,1.8,1.8,0,0,1-.15-.7,2.21,2.21,0,0,1,.19-.88,2.35,2.35,0,0,1,.54-.72,2.49,2.49,0,0,1,.82-.49,3,3,0,0,1,1.06-.18,3.18,3.18,0,0,1,1,.14,2.09,2.09,0,0,1,.74.39,1.73,1.73,0,0,1,.46.61,1.64,1.64,0,0,1,.17.77Zm-1-.8V38.3a1.46,1.46,0,0,0-.37-1.08,1.36,1.36,0,0,0-1.05-.39,1.71,1.71,0,0,0-.55.09,1.42,1.42,0,0,0-.48.27,1.36,1.36,0,0,0-.34.41,1.08,1.08,0,0,0-.13.54,1.17,1.17,0,0,0,.14.61,1.12,1.12,0,0,0,.38.4,1.63,1.63,0,0,0,.54.23,2.76,2.76,0,0,0,.65.07Zm-2.85-4.91a.42.42,0,0,1,.17-.33.68.68,0,0,1,.42-.13.63.63,0,0,1,.41.13.41.41,0,0,1,0,.66.69.69,0,0,1-.41.13.75.75,0,0,1-.42-.13A.42.42,0,0,1,122.31,34.54Zm1.69,0a.4.4,0,0,1,.18-.33.71.71,0,0,1,.82,0,.41.41,0,0,1,0,.66.71.71,0,0,1-.82,0A.4.4,0,0,1,124,34.54Z"/><path class="cls-3" d="M128.08,33.08h1v6.37h1c.19,0,.29.06.29.18V40c0,.16-.1.24-.29.24h-2Z"/><path class="cls-3" d="M129.9,40.25q-.3,0-.3-.18v-.39q0-.24.3-.24h.33c.73,0,1.09-.4,1.09-1.2a2.13,2.13,0,0,1,.19-.87,2,2,0,0,1,.53-.67,2.41,2.41,0,0,1,.8-.45,3,3,0,0,1,1-.16,3.13,3.13,0,0,1,1.07.16,2.32,2.32,0,0,1,.75.46,1.64,1.64,0,0,1,.44.7,2.48,2.48,0,0,1,.15.89,2,2,0,0,1-.13.73,1.67,1.67,0,0,1-.41.63,2,2,0,0,1-.75.45,3.26,3.26,0,0,1-1.12.17l-.54,0a2.9,2.9,0,0,1-.57-.12,2.5,2.5,0,0,1-.55-.26,2,2,0,0,1-.5-.46,1.39,1.39,0,0,1-.6.64,1.91,1.91,0,0,1-.91.2Zm3.93-.75a2,2,0,0,0,.67-.1,1.53,1.53,0,0,0,.47-.27,1.14,1.14,0,0,0,.27-.39,1.37,1.37,0,0,0,.09-.49,1.25,1.25,0,0,0-.13-.59,1.45,1.45,0,0,0-.33-.45,1.69,1.69,0,0,0-.49-.28,1.49,1.49,0,0,0-.55-.1,1.66,1.66,0,0,0-1.08.38,1.45,1.45,0,0,0-.33.45,1.45,1.45,0,0,0,0,1.08,1.14,1.14,0,0,0,.27.39,1.47,1.47,0,0,0,.48.27A2,2,0,0,0,133.83,39.5Z"/><path class="cls-3" d="M138,33.08h1v6.37h1q.3,0,.3.18V40q0,.24-.3.24h-2Z"/><path class="cls-3" d="M139.86,40.25c-.19,0-.29-.06-.29-.18v-.38c0-.16.1-.24.29-.24h4.22a1.63,1.63,0,0,1-.31-.52,4.37,4.37,0,0,1-.23-.91,1.36,1.36,0,0,0-.45-.9,1.59,1.59,0,0,0-.94-.26,4,4,0,0,0-.61.06,6.68,6.68,0,0,0-.71.18l-.25-.78.37-.09.47-.09.52-.07.51,0a2.58,2.58,0,0,1,1,.16,2.17,2.17,0,0,1,.64.43,1.72,1.72,0,0,1,.36.57,2.31,2.31,0,0,1,.14.62,5.86,5.86,0,0,0,.12.63,1.92,1.92,0,0,0,.24.52,1,1,0,0,0,.4.35,1.28,1.28,0,0,0,.63.13h.15c.2,0,.29.06.29.18V40c0,.16-.09.24-.29.24h-.24a3,3,0,0,1-.94-.14,1.76,1.76,0,0,1-.7-.45,1.42,1.42,0,0,1-.53.48,1.29,1.29,0,0,1-.5.11Z"/><path class="cls-3" d="M145.93,40.25c-.19,0-.29-.06-.29-.18v-.39c0-.16.1-.24.29-.24h.33a1.75,1.75,0,0,0,.4,0,.75.75,0,0,0,.34-.18.93.93,0,0,0,.25-.37,1.65,1.65,0,0,0,.09-.6,1.94,1.94,0,0,1,.2-.86,2,2,0,0,1,.52-.68,2.43,2.43,0,0,1,.79-.45,3,3,0,0,1,1-.16,2.5,2.5,0,0,1,1.79.6,2.22,2.22,0,0,1,.64,1.69,1.24,1.24,0,0,0,0,.3.76.76,0,0,0,.19.35,1.2,1.2,0,0,0,.43.29,2.15,2.15,0,0,0,.79.12h.3c.2,0,.29.06.29.18V40c0,.16-.09.24-.29.24h-.34a3.27,3.27,0,0,1-.54,0,2.85,2.85,0,0,1-.5-.14,1.52,1.52,0,0,1-.41-.29,1,1,0,0,1-.27-.44,2.76,2.76,0,0,1-.52.51,2.13,2.13,0,0,1-.53.29,2.17,2.17,0,0,1-.56.13,5.68,5.68,0,0,1-.59,0,2.93,2.93,0,0,1-1.22-.22,2.13,2.13,0,0,1-.86-.67,1.19,1.19,0,0,1-.56.63,1.68,1.68,0,0,1-.8.21Zm3.92-.75a2,2,0,0,0,.68-.1,1.42,1.42,0,0,0,.47-.27,1,1,0,0,0,.28-.39,1.39,1.39,0,0,0,0-1.08,1.67,1.67,0,0,0-.34-.45,1.64,1.64,0,0,0-.48-.28,1.56,1.56,0,0,0-.57-.1,1.61,1.61,0,0,0-.58.1,1.57,1.57,0,0,0-.49.28,1.45,1.45,0,0,0-.33.45,1.38,1.38,0,0,0-.12.59,1.36,1.36,0,0,0,.08.49,1.17,1.17,0,0,0,.28.39,1.58,1.58,0,0,0,.48.27A2,2,0,0,0,149.85,39.5Z"/><path class="cls-3" d="M153.88,40.25q-.3,0-.3-.18v-.38q0-.24.3-.24H155a.76.76,0,0,0,.62-.21.9.9,0,0,0,.16-.55V33.08h1v5.19a1.64,1.64,0,0,0,.07.46.87.87,0,0,0,.25.38,1.08,1.08,0,0,0,.45.25,2.2,2.2,0,0,0,.68.09h.29c.19,0,.29.06.29.18V40c0,.16-.1.24-.29.24h-.32a2.38,2.38,0,0,1-1-.18,1,1,0,0,1-.57-.59,1.61,1.61,0,0,1-.3.4,1.33,1.33,0,0,1-.37.23,1.94,1.94,0,0,1-.43.11,3.75,3.75,0,0,1-.48,0Z"/><path class="cls-3" d="M158.3,40.25c-.19,0-.29-.06-.29-.18v-.38c0-.16.1-.24.29-.24H160V33.08h1v7.17Z"/></svg>